<svg aria-hidden="true" style="position: absolute; width: 0; height: 0; overflow: hidden;" version="1.1" xmlns="http://www.w3.org/2000/svg" xmlns:xlink="http://www.w3.org/1999/xlink">
<defs>
<symbol id="icon-planet" viewBox="0 0 32 32">
<path fill="none" stroke="#fff" style="stroke: var(--color1, #fff)" stroke-linejoin="round" stroke-linecap="round" stroke-miterlimit="4" stroke-width="1.2" d="M16.2 27c6.075 0 11-4.925 11-11s-4.925-11-11-11c-6.075 0-11 4.925-11 11s4.925 11 11 11z"></path>
<path fill="none" stroke="#fff" style="stroke: var(--color1, #fff)" stroke-linejoin="round" stroke-linecap="round" stroke-miterlimit="4" stroke-width="1.2" d="M23.225 7.538c3.463-0.95 6.063-0.863 6.838 0.462 1.375 2.388-3.713 7.913-11.363 12.325s-14.975 6.063-16.362 3.675c-0.762-1.325 0.462-3.625 3.012-6.15"></path>
</symbol>
<symbol id="icon-rocket" viewBox="0 0 34 32">
<path d="M10.673 19.919c0.176 0.524-0.106 1.091-0.629 1.267-1.695 0.57-2.596 1.993-3.078 3.44-0.191 0.575-0.307 1.128-0.376 1.585 0.457-0.069 1.011-0.185 1.585-0.376 1.447-0.482 2.87-1.383 3.44-3.078 0.176-0.523 0.743-0.805 1.267-0.629s0.805 0.743 0.629 1.267c-0.855 2.542-2.97 3.76-4.704 4.338-0.876 0.292-1.696 0.436-2.295 0.508-0.301 0.036-0.549 0.054-0.726 0.064-0.088 0.005-0.159 0.007-0.21 0.008-0.025 0.001-0.045 0.001-0.060 0.001l-0.018 0h-0.009c-0 0-0.001 0-0.001-1-1 0-1-0-1-0.001v-0.003l0-0.006 0-0.018c0-0.015 0.001-0.035 0.001-0.060 0.001-0.050 0.004-0.121 0.008-0.209 0.009-0.177 0.028-0.425 0.064-0.726 0.072-0.599 0.216-1.419 0.508-2.295 0.577-1.734 1.795-3.849 4.338-4.704 0.523-0.176 1.091 0.106 1.267 0.629zM5.487 27.313h-1c0 0.552 0.448 1 1 1v-1z"></path>
<path d="M27.274 5.527c0.167 1.161 0.231 4.018-2.694 6.942l-7.78 7.78-4.248-4.248 7.78-7.78c2.924-2.924 5.781-2.861 6.942-2.694zM27.564 3.548c-1.596-0.231-5.155-0.233-8.646 3.258l-8.488 8.488c-0.188 0.188-0.293 0.442-0.293 0.707s0.105 0.52 0.293 0.707l5.663 5.663c0.39 0.391 1.024 0.391 1.414 0l8.488-8.488c3.491-3.491 3.489-7.050 3.258-8.646-0.058-0.427-0.255-0.824-0.56-1.129s-0.701-0.502-1.129-0.56z"></path>
<path d="M23.875 13.588c0.552 0 1 0.448 1 1v8.075l-0 0.014c-0.007 0.525-0.221 1.026-0.595 1.395l-4.036 4.048c-0.256 0.256-0.577 0.437-0.928 0.525s-0.72 0.079-1.066-0.027c-0.346-0.105-0.658-0.303-0.901-0.571s-0.408-0.597-0.479-0.952c-0-0 0 0 0 0l-1.050-5.237c-0.109-0.541 0.242-1.068 0.784-1.177s1.068 0.242 1.177 0.784l1.050 5.239 4.044-4.057v-8.061c0-0.552 0.448-1 1-1z"></path>
<path d="M10.122 7.925l0.014-0h8.075c0.552 0 1 0.448 1 1s-0.448 1-1 1h-8.061l-0.008 0.008-0-0-4.047 4.036 5.238 1.050c0.541 0.109 0.892 0.636 0.784 1.177s-0.636 0.892-1.177 0.784l-5.236-1.050c-0-0-0.001-0-0.001-0-0.355-0.071-0.684-0.236-0.952-0.479s-0.466-0.555-0.571-0.901-0.114-0.715-0.027-1.066c0.088-0.351 0.269-0.672 0.525-0.928l0.002-0.002 4.047-4.034c0.369-0.374 0.87-0.588 1.395-0.595z"></path>
</symbol>
<symbol id="icon-basketball" viewBox="0 0 32 32">
<path fill="none" stroke="#fff" style="stroke: var(--color1, #fff)" stroke-linejoin="round" stroke-linecap="round" stroke-miterlimit="4" stroke-width="1.2" d="M16 28c6.627 0 12-5.373 12-12s-5.373-12-12-12c-6.627 0-12 5.373-12 12s5.373 12 12 12z"></path>
<path fill="none" stroke="#fff" style="stroke: var(--color1, #fff)" stroke-linejoin="round" stroke-linecap="round" stroke-miterlimit="4" stroke-width="1.2" d="M7.5 7.525c2.244 2.25 3.503 5.298 3.5 8.475 0.003 3.177-1.256 6.225-3.5 8.475"></path>
<path fill="none" stroke="#fff" style="stroke: var(--color1, #fff)" stroke-linejoin="round" stroke-linecap="round" stroke-miterlimit="4" stroke-width="1.2" d="M24.5 7.525c-2.241 2.251-3.499 5.298-3.499 8.475s1.258 6.224 3.499 8.475"></path>
<path fill="none" stroke="#fff" style="stroke: var(--color1, #fff)" stroke-linejoin="round" stroke-linecap="round" stroke-miterlimit="4" stroke-width="1.2" d="M4 16h24"></path>
<path fill="none" stroke="#fff" style="stroke: var(--color1, #fff)" stroke-linejoin="round" stroke-linecap="round" stroke-miterlimit="4" stroke-width="1.2" d="M16 4v24"></path>
</symbol>
<symbol id="icon-camera" viewBox="0 0 32 32">
<path fill="none" stroke="#fff" style="stroke: var(--color1, #fff)" stroke-linejoin="round" stroke-linecap="round" stroke-miterlimit="4" stroke-width="1.2" d="M26.2 26h-20c-0.53 0-1.039-0.211-1.414-0.586s-0.586-0.884-0.586-1.414v-14c0-0.53 0.211-1.039 0.586-1.414s0.884-0.586 1.414-0.586h4l2-3h8l2 3h4c0.53 0 1.039 0.211 1.414 0.586s0.586 0.884 0.586 1.414v14c0 0.53-0.211 1.039-0.586 1.414s-0.884 0.586-1.414 0.586z"></path>
<path fill="none" stroke="#fff" style="stroke: var(--color1, #fff)" stroke-linejoin="round" stroke-linecap="round" stroke-miterlimit="4" stroke-width="1.2" d="M16.2 21c2.485 0 4.5-2.015 4.5-4.5s-2.015-4.5-4.5-4.5c-2.485 0-4.5 2.015-4.5 4.5s2.015 4.5 4.5 4.5z"></path>
</symbol>
<symbol id="icon-discord" viewBox="0 0 32 32">
<path fill="#858584" style="fill: var(--color2, #858584)" d="M12 19.5c0.828 0 1.5-0.672 1.5-1.5s-0.672-1.5-1.5-1.5c-0.828 0-1.5 0.672-1.5 1.5s0.672 1.5 1.5 1.5z"></path>
<path fill="#858584" style="fill: var(--color2, #858584)" d="M20 19.5c0.828 0 1.5-0.672 1.5-1.5s-0.672-1.5-1.5-1.5c-0.828 0-1.5 0.672-1.5 1.5s0.672 1.5 1.5 1.5z"></path>
<path fill="#858584" style="fill: var(--color2, #858584)" d="M15.992 10.001c-2.168-0.016-4.325 0.306-6.394 0.954-0.527 0.165-1.088-0.128-1.253-0.655s0.128-1.088 0.655-1.253c2.265-0.71 4.626-1.063 6.999-1.046 2.373-0.017 4.734 0.336 6.999 1.046 0.527 0.165 0.82 0.726 0.655 1.253s-0.726 0.82-1.253 0.655c-2.069-0.648-4.226-0.97-6.393-0.954h-0.015z"></path>
<path fill="#858584" style="fill: var(--color2, #858584)" d="M8.345 21.701c0.165-0.527 0.726-0.82 1.253-0.655 2.069 0.648 4.226 0.97 6.394 0.954h0.015c2.168 0.016 4.325-0.306 6.393-0.954 0.527-0.165 1.088 0.128 1.253 0.655s-0.128 1.088-0.655 1.253c-2.265 0.71-4.626 1.063-6.999 1.046-2.373 0.017-4.735-0.336-6.999-1.046-0.527-0.165-0.82-0.726-0.655-1.253z"></path>
<path fill="#858584" style="fill: var(--color2, #858584)" d="M20.22 4.81c0.43-0.243 0.935-0.319 1.418-0.213 1.318 0.286 2.608 0.686 3.855 1.197 0.281 0.108 0.533 0.28 0.737 0.501 0.206 0.224 0.358 0.492 0.442 0.785l4.236 14.144c0.11 0.368 0.113 0.761 0.007 1.131s-0.315 0.702-0.604 0.956l-0.005 0.005c-2.067 1.799-4.869 3.161-8.051 3.941-0.442 0.113-0.909 0.069-1.323-0.124-0.412-0.192-0.744-0.52-0.942-0.929l-1.508-2.992c-0.249-0.493-0.050-1.095 0.443-1.343s1.095-0.050 1.343 0.443l1.514 3.002c2.938-0.72 5.432-1.957 7.212-3.506l0.656 0.754-0.662-0.75c0.002-0.002 0.003-0.004 0.004-0.006s0.001-0.005-0-0.007l-4.236-14.145c-0.003-0.001-0.007-0.003-0.011-0.004-1.143-0.469-2.325-0.836-3.532-1.098l-0.002-0c-0.003-0.001-0.006-0-0.009 0.001s-0.004 0.003-0.005 0.006l-0.985 2.98c-0.173 0.524-0.739 0.809-1.263 0.636s-0.809-0.739-0.636-1.263l0.99-2.996c0.16-0.468 0.486-0.861 0.917-1.104z"></path>
<path fill="#858584" style="fill: var(--color2, #858584)" d="M10.798 6.552c-0.003-0.002-0.006-0.002-0.009-0.001l-0.002 0c-1.207 0.262-2.389 0.629-3.532 1.098-0.004 0.001-0.007 0.003-0.011 0.004l-4.236 14.145c-0.001 0.002-0.001 0.005-0 0.007s0.002 0.004 0.003 0.006c1.78 1.547 4.272 2.782 7.207 3.502l0.001-0.002 1.512-3c0.249-0.493 0.85-0.691 1.343-0.443s0.691 0.85 0.443 1.343l-1.508 2.992c-0.198 0.409-0.531 0.737-0.942 0.929-0.413 0.193-0.881 0.237-1.323 0.124-3.182-0.78-5.983-2.142-8.051-3.941l-0.005-0.005c-0.288-0.255-0.498-0.586-0.604-0.956s-0.103-0.762 0.007-1.131c-0 0 0 0 0 0l4.236-14.145c0.085-0.292 0.236-0.561 0.442-0.785 0.204-0.221 0.456-0.393 0.737-0.501 1.248-0.511 2.538-0.912 3.856-1.197 0.482-0.105 0.987-0.029 1.417 0.213s0.757 0.636 0.916 1.104l0.003 0.009 0.987 2.988c0.173 0.524-0.111 1.090-0.636 1.263s-1.090-0.111-1.263-0.636l-0.985-2.98c-0.001-0.003-0.003-0.005-0.005-0.006z"></path>
</symbol>
<symbol id="icon-mail" viewBox="0 0 32 32">
<path fill="#fff" style="fill: var(--color1, #fff)" d="M3 7c0-0.552 0.448-1 1-1h24c0.552 0 1 0.448 1 1v17c0 0.53-0.211 1.039-0.586 1.414s-0.884 0.586-1.414 0.586h-22c-0.53 0-1.039-0.211-1.414-0.586s-0.586-0.884-0.586-1.414v-17zM5 8v16h22v-16h-22z"></path>
<path fill="#fff" style="fill: var(--color1, #fff)" d="M3.263 6.324c0.373-0.407 1.006-0.435 1.413-0.061l11.324 10.38 11.324-10.38c0.407-0.373 1.040-0.346 1.413 0.061s0.346 1.040-0.061 1.413l-12 11c-0.382 0.351-0.969 0.351-1.351 0l-12-11c-0.407-0.373-0.435-1.006-0.061-1.413z"></path>
</symbol>
<symbol id="icon-eye" viewBox="0 0 32 32">
<path fill="#a259ff" style="fill: var(--color3, #a259ff)" d="M4.543 10.793c2.384-2.384 6.125-4.793 11.457-4.793s9.073 2.409 11.457 4.793c1.189 1.189 2.046 2.376 2.608 3.268 0.281 0.447 0.49 0.821 0.629 1.088 0.070 0.134 0.123 0.24 0.159 0.316 0.018 0.038 0.032 0.068 0.042 0.089l0.012 0.026 0.004 0.008 0.001 0.003 0 0.001c0 0 0 0.001-0.913 0.407 0.914 0.406 0.914 0.407 0.913 0.407l-0 0.001-0.001 0.003-0.004 0.008-0.012 0.026c-0.010 0.022-0.024 0.052-0.042 0.089-0.036 0.076-0.089 0.182-0.159 0.316-0.14 0.267-0.348 0.642-0.629 1.088-0.561 0.892-1.419 2.079-2.608 3.268-2.384 2.384-6.124 4.793-11.457 4.793s-9.073-2.409-11.457-4.793c-1.189-1.189-2.046-2.376-2.608-3.268-0.281-0.447-0.49-0.821-0.629-1.088-0.070-0.134-0.123-0.24-0.159-0.316-0.018-0.038-0.032-0.068-0.042-0.089l-0.012-0.026-0.004-0.008-0.001-0.003-0-0.001c-0-0-0-0.001 0.913-0.407-0.914-0.406-0.914-0.407-0.913-0.407l0.002-0.004 0.004-0.008 0.012-0.026c0.010-0.022 0.024-0.052 0.042-0.089 0.036-0.076 0.089-0.182 0.159-0.316 0.14-0.267 0.348-0.642 0.629-1.088 0.561-0.892 1.419-2.079 2.608-3.268zM2 16l-0.914-0.406c-0.115 0.259-0.115 0.554 0 0.812l0.914-0.406zM3.118 16c0.118 0.22 0.287 0.52 0.509 0.873 0.501 0.796 1.269 1.858 2.33 2.92 2.116 2.116 5.375 4.207 10.043 4.207s7.927-2.091 10.043-4.207c1.061-1.061 1.829-2.124 2.33-2.92 0.223-0.354 0.392-0.653 0.509-0.873-0.118-0.22-0.287-0.52-0.509-0.873-0.501-0.796-1.269-1.858-2.33-2.919-2.116-2.116-5.376-4.207-10.043-4.207s-7.927 2.091-10.043 4.207c-1.061 1.061-1.829 2.124-2.33 2.919-0.223 0.354-0.392 0.653-0.509 0.873zM30 16l0.914 0.406c0.115-0.259 0.115-0.554 0-0.812l-0.914 0.406z"></path>
<path fill="#a259ff" style="fill: var(--color3, #a259ff)" d="M16 12c-2.209 0-4 1.791-4 4s1.791 4 4 4c2.209 0 4-1.791 4-4s-1.791-4-4-4zM10 16c0-3.314 2.686-6 6-6s6 2.686 6 6c0 3.314-2.686 6-6 6s-6-2.686-6-6z"></path>
</symbol>
<symbol id="icon-instagram" viewBox="0 0 32 32">
<path fill="#858584" style="fill: var(--color2, #858584)" d="M16 12c-2.209 0-4 1.791-4 4s1.791 4 4 4c2.209 0 4-1.791 4-4s-1.791-4-4-4zM10 16c0-3.314 2.686-6 6-6s6 2.686 6 6c0 3.314-2.686 6-6 6s-6-2.686-6-6z"></path>
<path fill="#858584" style="fill: var(--color2, #858584)" d="M10.5 5.5c-2.761 0-5 2.239-5 5v11c0 2.761 2.239 5 5 5h11c2.761 0 5-2.239 5-5v-11c0-2.761-2.239-5-5-5h-11zM3.5 10.5c0-3.866 3.134-7 7-7h11c3.866 0 7 3.134 7 7v11c0 3.866-3.134 7-7 7h-11c-3.866 0-7-3.134-7-7v-11z"></path>
<path fill="#858584" style="fill: var(--color2, #858584)" d="M22.5 11c0.828 0 1.5-0.672 1.5-1.5s-0.672-1.5-1.5-1.5c-0.828 0-1.5 0.672-1.5 1.5s0.672 1.5 1.5 1.5z"></path>
</symbol>
<symbol id="icon-magic-wand" viewBox="0 0 32 32">
<path fill="none" stroke="#fff" style="stroke: var(--color1, #fff)" stroke-linejoin="round" stroke-linecap="round" stroke-miterlimit="4" stroke-width="1.2" d="M27.2 16v6"></path>
<path fill="none" stroke="#fff" style="stroke: var(--color1, #fff)" stroke-linejoin="round" stroke-linecap="round" stroke-miterlimit="4" stroke-width="1.2" d="M24.2 19h6"></path>
<path fill="none" stroke="#fff" style="stroke: var(--color1, #fff)" stroke-linejoin="round" stroke-linecap="round" stroke-miterlimit="4" stroke-width="1.2" d="M10.7 5v5"></path>
<path fill="none" stroke="#fff" style="stroke: var(--color1, #fff)" stroke-linejoin="round" stroke-linecap="round" stroke-miterlimit="4" stroke-width="1.2" d="M8.2 7.5h5"></path>
<path fill="none" stroke="#fff" style="stroke: var(--color1, #fff)" stroke-linejoin="round" stroke-linecap="round" stroke-miterlimit="4" stroke-width="1.2" d="M21.2 23v4"></path>
<path fill="none" stroke="#fff" style="stroke: var(--color1, #fff)" stroke-linejoin="round" stroke-linecap="round" stroke-miterlimit="4" stroke-width="1.2" d="M19.2 25h4"></path>
<path fill="none" stroke="#fff" style="stroke: var(--color1, #fff)" stroke-linejoin="round" stroke-linecap="round" stroke-miterlimit="4" stroke-width="1.2" d="M23.503 4.704l-18.588 18.588c-0.391 0.391-0.391 1.024 0 1.414l2.585 2.585c0.391 0.391 1.024 0.391 1.414 0l18.588-18.588c0.391-0.391 0.391-1.024 0-1.414l-2.585-2.585c-0.391-0.391-1.024-0.391-1.414 0z"></path>
<path fill="none" stroke="#fff" style="stroke: var(--color1, #fff)" stroke-linejoin="round" stroke-linecap="round" stroke-miterlimit="4" stroke-width="1.2" d="M18.2 10l4 4"></path>
</symbol>
<symbol id="icon-music-notes" viewBox="0 0 32 32">
<path fill="none" stroke="#fff" style="stroke: var(--color1, #fff)" stroke-linejoin="round" stroke-linecap="round" stroke-miterlimit="4" stroke-width="1.2" d="M22.5 25c1.933 0 3.5-1.567 3.5-3.5s-1.567-3.5-3.5-3.5c-1.933 0-3.5 1.567-3.5 3.5s1.567 3.5 3.5 3.5z"></path>
<path fill="none" stroke="#fff" style="stroke: var(--color1, #fff)" stroke-linejoin="round" stroke-linecap="round" stroke-miterlimit="4" stroke-width="1.2" d="M6.5 29c1.933 0 3.5-1.567 3.5-3.5s-1.567-3.5-3.5-3.5c-1.933 0-3.5 1.567-3.5 3.5s1.567 3.5 3.5 3.5z"></path>
<path fill="none" stroke="#fff" style="stroke: var(--color1, #fff)" stroke-linejoin="round" stroke-linecap="round" stroke-miterlimit="4" stroke-width="1.2" d="M26 10l-16 4"></path>
<path fill="none" stroke="#fff" style="stroke: var(--color1, #fff)" stroke-linejoin="round" stroke-linecap="round" stroke-miterlimit="4" stroke-width="1.2" d="M10 25.5v-17.5l16-4v17.5"></path>
</symbol>
<symbol id="icon-nav-menu" viewBox="0 0 32 32">
<path fill="#fff" style="fill: var(--color1, #fff)" d="M4 16c0-0.552 0.448-1 1-1h22c0.552 0 1 0.448 1 1s-0.448 1-1 1h-22c-0.552 0-1-0.448-1-1z"></path>
<path fill="#fff" style="fill: var(--color1, #fff)" d="M4 8c0-0.552 0.448-1 1-1h15c0.552 0 1 0.448 1 1s-0.448 1-1 1h-15c-0.552 0-1-0.448-1-1z"></path>
<path fill="#fff" style="fill: var(--color1, #fff)" d="M4 24c0-0.552 0.448-1 1-1h15c0.552 0 1 0.448 1 1s-0.448 1-1 1h-15c-0.552 0-1-0.448-1-1z"></path>
</symbol>
<symbol id="icon-paint" viewBox="0 0 32 32">
<path fill="none" stroke="#fff" style="stroke: var(--color1, #fff)" stroke-linejoin="round" stroke-linecap="round" stroke-miterlimit="4" stroke-width="1.2" d="M2.5 27h9c1.286 0 2.542-0.381 3.611-1.095s1.902-1.729 2.394-2.917c0.492-1.188 0.621-2.495 0.37-3.756s-0.87-2.419-1.779-3.328c-0.909-0.909-2.067-1.528-3.328-1.779s-2.568-0.122-3.756 0.37c-1.188 0.492-2.203 1.325-2.917 2.394s-1.095 2.326-1.095 3.611c0 4.5-2.5 6.5-2.5 6.5z"></path>
<path fill="none" stroke="#fff" style="stroke: var(--color1, #fff)" stroke-linejoin="round" stroke-linecap="round" stroke-miterlimit="4" stroke-width="1.2" d="M14.050 14.525c2.4-3.237 8.5-10.65 14.075-10.65 0 5.575-7.412 11.675-10.65 14.075"></path>
<path fill="none" stroke="#fff" style="stroke: var(--color1, #fff)" stroke-linejoin="round" stroke-linecap="round" stroke-miterlimit="4" stroke-width="1.2" d="M16.625 11.325c1.694 0.956 3.094 2.356 4.050 4.050"></path>
</symbol>
<symbol id="icon-store-front" viewBox="0 0 32 32">
<path fill="#a259ff" style="fill: var(--color3, #a259ff)" d="M6 12.451c0.552 0 1 0.448 1 1v12.55h18v-12.55c0-0.552 0.448-1 1-1s1 0.448 1 1v12.55c0 0.53-0.211 1.039-0.586 1.414s-0.884 0.586-1.414 0.586h-18c-0.53 0-1.039-0.211-1.414-0.586s-0.586-0.884-0.586-1.414v-12.55c0-0.552 0.448-1 1-1z"></path>
<path fill="#a259ff" style="fill: var(--color3, #a259ff)" d="M3 5c0-0.552 0.448-1 1-1h24c0.552 0 1 0.448 1 1s-0.448 1-1 1h-24c-0.552 0-1-0.448-1-1z"></path>
<path fill="#a259ff" style="fill: var(--color3, #a259ff)" d="M4 7c0.552 0 1 0.448 1 1v2c0 0.796 0.316 1.559 0.879 2.121s1.326 0.879 2.121 0.879c0.796 0 1.559-0.316 2.121-0.879s0.879-1.326 0.879-2.121v-2c0-0.552 0.448-1 1-1s1 0.448 1 1v2c0 1.326-0.527 2.598-1.464 3.535s-2.209 1.465-3.536 1.465-2.598-0.527-3.536-1.465c-0.938-0.938-1.464-2.209-1.464-3.535v-2c0-0.552 0.448-1 1-1z"></path>
<path fill="#a259ff" style="fill: var(--color3, #a259ff)" d="M12 7c0.552 0 1 0.448 1 1v2c0 0.796 0.316 1.559 0.879 2.121s1.326 0.879 2.121 0.879 1.559-0.316 2.121-0.879c0.563-0.563 0.879-1.326 0.879-2.121v-2c0-0.552 0.448-1 1-1s1 0.448 1 1v2c0 1.326-0.527 2.598-1.465 3.535s-2.209 1.465-3.535 1.465-2.598-0.527-3.536-1.465c-0.938-0.938-1.464-2.209-1.464-3.535v-2c0-0.552 0.448-1 1-1z"></path>
<path fill="#a259ff" style="fill: var(--color3, #a259ff)" d="M20 7c0.552 0 1 0.448 1 1v2c0 0.796 0.316 1.559 0.879 2.121s1.326 0.879 2.121 0.879 1.559-0.316 2.121-0.879c0.563-0.563 0.879-1.326 0.879-2.121v-2c0-0.552 0.448-1 1-1s1 0.448 1 1v2c0 1.326-0.527 2.598-1.465 3.535s-2.209 1.465-3.535 1.465-2.598-0.527-3.535-1.465c-0.938-0.938-1.465-2.209-1.465-3.535v-2c0-0.552 0.448-1 1-1z"></path>
</symbol>
<symbol id="icon-swatches" viewBox="0 0 32 32">
<path fill="none" stroke="#fff" style="stroke: var(--color1, #fff)" stroke-linejoin="round" stroke-linecap="round" stroke-miterlimit="4" stroke-width="1.2" d="M4.787 21.625l3.025-17.137c0.021-0.129 0.068-0.253 0.137-0.364s0.16-0.207 0.267-0.283c0.107-0.076 0.228-0.129 0.356-0.158s0.26-0.031 0.389-0.008l6.9 1.213c0.261 0.049 0.492 0.198 0.644 0.415s0.212 0.486 0.169 0.747l-3.038 17.238c-0.208 1.161-0.862 2.194-1.822 2.878s-2.15 0.966-3.315 0.784c-2.487-0.4-4.15-2.837-3.712-5.325z"></path>
<path fill="none" stroke="#fff" style="stroke: var(--color1, #fff)" stroke-linejoin="round" stroke-linecap="round" stroke-miterlimit="4" stroke-width="1.2" d="M14.988 15.6l9.112-3.313c0.124-0.046 0.256-0.066 0.388-0.061s0.262 0.037 0.381 0.093c0.12 0.056 0.227 0.135 0.316 0.232s0.158 0.212 0.202 0.336l2.4 6.575c0.089 0.249 0.075 0.522-0.037 0.761s-0.315 0.424-0.563 0.514l-16.45 5.988"></path>
<path fill="none" stroke="#fff" style="stroke: var(--color1, #fff)" stroke-linejoin="round" stroke-linecap="round" stroke-miterlimit="4" stroke-width="1.2" d="M27.7 20.312v5.688c0 0.265-0.105 0.52-0.293 0.707s-0.442 0.293-0.707 0.293h-17.5"></path>
<path fill="#fff" style="fill: var(--color1, #fff)" d="M9.2 24c0.828 0 1.5-0.672 1.5-1.5s-0.672-1.5-1.5-1.5c-0.828 0-1.5 0.672-1.5 1.5s0.672 1.5 1.5 1.5z"></path>
</symbol>
<symbol id="icon-twitter-logo" viewBox="0 0 32 32">
<path fill="none" stroke="#858584" style="stroke: var(--color2, #858584)" stroke-linejoin="round" stroke-linecap="round" stroke-miterlimit="4" stroke-width="2" d="M16.001 11.001c0-2.75 2.313-5.038 5.063-5 0.963 0.011 1.902 0.3 2.705 0.832s1.435 1.285 1.82 2.168h4.412l-4.038 4.038c-0.261 4.056-2.056 7.86-5.021 10.639s-6.877 4.325-10.941 4.323c-4 0-5-1.5-5-1.5s4-1.5 6-4.5c0 0-8-4-6-15 0 0 5 5 11 6v-2z"></path>
</symbol>
<symbol id="icon-video-camera" viewBox="0 0 32 32">
<path fill="none" stroke="#fff" style="stroke: var(--color1, #fff)" stroke-linejoin="round" stroke-linecap="round" stroke-miterlimit="4" stroke-width="1.2" d="M3 7.5h16c1.061 0 2.078 0.421 2.828 1.172s1.172 1.768 1.172 2.828v12c0 0.265-0.105 0.52-0.293 0.707s-0.442 0.293-0.707 0.293h-16c-1.061 0-2.078-0.421-2.828-1.172s-1.172-1.768-1.172-2.828v-12c0-0.265 0.105-0.52 0.293-0.707s0.442-0.293 0.707-0.293v0z"></path>
<path fill="none" stroke="#fff" style="stroke: var(--color1, #fff)" stroke-linejoin="round" stroke-linecap="round" stroke-miterlimit="4" stroke-width="1.2" d="M23 14l7-4v12l-7-4"></path>
</symbol>
<symbol id="icon-youtube-logo" viewBox="0 0 32 32">
<path fill="#858584" style="fill: var(--color2, #858584)" d="M13.528 11.118c0.325-0.174 0.72-0.155 1.027 0.050l6 4c0.278 0.185 0.445 0.498 0.445 0.832s-0.167 0.647-0.445 0.832l-6 4c-0.307 0.204-0.701 0.224-1.027 0.050s-0.528-0.513-0.528-0.882v-8c0-0.369 0.203-0.708 0.528-0.882zM15 13.868v4.263l3.197-2.131-3.197-2.131z"></path>
<path fill="#858584" style="fill: var(--color2, #858584)" d="M15.998 5.051h0.083c0.055 0 0.134 0.001 0.236 0.002 0.204 0.002 0.497 0.007 0.863 0.018 0.729 0.022 1.746 0.068 2.897 0.165 2.276 0.192 5.174 0.591 7.406 1.444l0.015 0.006c0.438 0.175 0.829 0.451 1.141 0.806s0.536 0.777 0.655 1.234l0.001 0.004c0.311 1.219 0.706 3.478 0.706 7.273s-0.395 6.054-0.706 7.273l-0.001 0.004c-0.119 0.457-0.343 0.88-0.655 1.234s-0.703 0.63-1.141 0.806l-0.015 0.006c-2.231 0.852-5.129 1.251-7.406 1.444-1.151 0.097-2.168 0.143-2.897 0.165-0.365 0.011-0.659 0.016-0.863 0.018-0.102 0.001-0.181 0.001-0.236 0.002h-0.162c-0.055-0-0.134-0-0.236-0.002-0.204-0.002-0.498-0.007-0.863-0.018-0.729-0.022-1.746-0.068-2.897-0.165-2.276-0.192-5.174-0.591-7.406-1.444l-0.015-0.006c-0.438-0.175-0.829-0.451-1.141-0.806s-0.536-0.777-0.655-1.234l-0.001-0.004c-0.311-1.218-0.706-3.478-0.706-7.273s0.395-6.054 0.706-7.273l0.001-0.004c0.119-0.457 0.343-0.88 0.655-1.234s0.703-0.63 1.141-0.806l0.015-0.006c2.231-0.853 5.129-1.251 7.406-1.444 1.151-0.097 2.168-0.143 2.897-0.165 0.365-0.011 0.659-0.016 0.863-0.018 0.102-0.001 0.181-0.001 0.236-0.002h0.080zM15.995 24.951l0.011-0 0.003 0h0.068c0.049-0 0.123-0 0.219-0.002 0.192-0.002 0.473-0.007 0.824-0.017 0.702-0.021 1.682-0.066 2.789-0.159 2.236-0.189 4.896-0.57 6.852-1.316 0.145-0.059 0.274-0.151 0.377-0.268 0.105-0.119 0.18-0.26 0.22-0.413 0.264-1.032 0.643-3.122 0.643-6.775s-0.38-5.743-0.643-6.775c-0.040-0.153-0.115-0.294-0.22-0.413-0.103-0.117-0.233-0.209-0.377-0.268-1.956-0.745-4.616-1.127-6.852-1.316-1.107-0.093-2.087-0.138-2.789-0.159-0.351-0.011-0.632-0.015-0.824-0.017-0.096-0.001-0.17-0.001-0.219-0.002h-0.153c-0.049 0-0.123 0-0.219 0.002-0.192 0.002-0.473 0.007-0.824 0.017-0.702 0.021-1.682 0.066-2.789 0.159-2.236 0.189-4.896 0.57-6.851 1.316-0.145 0.059-0.274 0.151-0.377 0.268-0.104 0.119-0.18 0.26-0.22 0.413-0.264 1.032-0.643 3.122-0.643 6.775s0.38 5.743 0.643 6.775c0.040 0.153 0.115 0.294 0.22 0.413 0.103 0.117 0.233 0.209 0.377 0.268 1.956 0.745 4.616 1.127 6.852 1.316 1.107 0.093 2.086 0.138 2.789 0.159 0.351 0.011 0.632 0.015 0.824 0.017 0.096 0.001 0.17 0.001 0.219 0.002h0.071z"></path>
</symbol>
</defs>
</svg>
