<!-- Generated by IcoMoon.io -->
<svg version="1.1" xmlns="http://www.w3.org/2000/svg" width="32" height="32" viewBox="0 0 32 32">
<path d="M4.543 10.793c2.384-2.384 6.125-4.793 11.457-4.793s9.073 2.409 11.457 4.793c1.189 1.189 2.046 2.376 2.608 3.268 0.281 0.447 0.49 0.821 0.629 1.088 0.070 0.134 0.123 0.24 0.159 0.316 0.018 0.038 0.032 0.068 0.042 0.089l0.012 0.026 0.004 0.008 0.001 0.003 0 0.001c0 0 0 0.001-0.913 0.407 0.914 0.406 0.914 0.407 0.913 0.407l-0 0.001-0.001 0.003-0.004 0.008-0.012 0.026c-0.010 0.022-0.024 0.052-0.042 0.089-0.036 0.076-0.089 0.182-0.159 0.316-0.14 0.267-0.348 0.642-0.629 1.088-0.561 0.892-1.419 2.079-2.608 3.268-2.384 2.384-6.124 4.793-11.457 4.793s-9.073-2.409-11.457-4.793c-1.189-1.189-2.046-2.376-2.608-3.268-0.281-0.447-0.49-0.821-0.629-1.088-0.070-0.134-0.123-0.24-0.159-0.316-0.018-0.038-0.032-0.068-0.042-0.089l-0.012-0.026-0.004-0.008-0.001-0.003-0-0.001c-0-0-0-0.001 0.913-0.407-0.914-0.406-0.914-0.407-0.913-0.407l0.002-0.004 0.004-0.008 0.012-0.026c0.010-0.022 0.024-0.052 0.042-0.089 0.036-0.076 0.089-0.182 0.159-0.316 0.14-0.267 0.348-0.642 0.629-1.088 0.561-0.892 1.419-2.079 2.608-3.268zM2 16l-0.914-0.406c-0.115 0.259-0.115 0.554 0 0.812l0.914-0.406zM3.118 16c0.118 0.22 0.287 0.52 0.509 0.873 0.501 0.796 1.269 1.858 2.33 2.92 2.116 2.116 5.375 4.207 10.043 4.207s7.927-2.091 10.043-4.207c1.061-1.061 1.829-2.124 2.33-2.92 0.223-0.354 0.392-0.653 0.509-0.873-0.118-0.22-0.287-0.52-0.509-0.873-0.501-0.796-1.269-1.858-2.33-2.919-2.116-2.116-5.376-4.207-10.043-4.207s-7.927 2.091-10.043 4.207c-1.061 1.061-1.829 2.124-2.33 2.919-0.223 0.354-0.392 0.653-0.509 0.873zM30 16l0.914 0.406c0.115-0.259 0.115-0.554 0-0.812l-0.914 0.406z"></path>
<path d="M16 12c-2.209 0-4 1.791-4 4s1.791 4 4 4c2.209 0 4-1.791 4-4s-1.791-4-4-4zM10 16c0-3.314 2.686-6 6-6s6 2.686 6 6c0 3.314-2.686 6-6 6s-6-2.686-6-6z"></path>
</svg>
