<!-- Generated by IcoMoon.io -->
<svg version="1.1" xmlns="http://www.w3.org/2000/svg" width="320" height="32" viewBox="0 0 320 32">
<path d="M11.968 22.317h0.634v-22.317h4.646v24.64h-9.082l-2.886-22.317h-0.634v22.317h-4.646v-24.64h9.082l2.886 22.317z"></path>
<path d="M22.503 0h15.77v4.435h-11.123v5.632h10.912v4.435h-10.912v10.138h-4.646v-24.64z"></path>
<path d="M42.86 0h17.741v4.435h-6.547v20.205h-4.646v-20.205h-6.547v-4.435z"></path>
<path d="M84.84 0h8.166l1.408 18.515v3.59h0.845v-3.59l1.408-18.515h8.166v24.64h-4.224v-16.474l0.422-5.632h-0.845l-1.83 22.106h-6.97l-1.901-22.106h-0.845l0.422 5.632v16.474h-4.224v-24.64z"></path>
<path d="M119.663 22.106c-0.469 1.103-1.126 1.889-1.971 2.358-0.845 0.446-1.83 0.669-2.957 0.669-1.056 0-2.053-0.199-2.992-0.598-0.915-0.399-1.725-0.986-2.429-1.76s-1.267-1.713-1.69-2.816c-0.399-1.103-0.598-2.358-0.598-3.766v-0.563c0-1.385 0.199-2.628 0.598-3.731s0.939-2.042 1.619-2.816c0.681-0.774 1.467-1.361 2.358-1.76 0.915-0.422 1.889-0.634 2.922-0.634 1.244 0 2.241 0.211 2.992 0.634 0.774 0.422 1.385 1.079 1.83 1.971h0.634v-2.112h4.435v12.179c0 0.704 0.317 1.056 0.95 1.056h0.669v4.224h-3.027c-0.798 0-1.455-0.235-1.971-0.704-0.493-0.469-0.739-1.079-0.739-1.83h-0.634zM115.721 20.909c1.291 0 2.323-0.422 3.098-1.267 0.774-0.868 1.162-2.042 1.162-3.52v-0.422c0-1.478-0.387-2.64-1.162-3.485-0.774-0.868-1.807-1.302-3.098-1.302s-2.323 0.434-3.098 1.302c-0.774 0.845-1.162 2.006-1.162 3.485v0.422c0 1.478 0.387 2.652 1.162 3.52 0.774 0.845 1.807 1.267 3.098 1.267z"></path>
<path d="M129.072 7.181h7.392v2.534h0.634c0.329-0.962 0.88-1.701 1.654-2.218 0.798-0.54 1.748-0.81 2.851-0.81 1.737 0 3.133 0.551 4.189 1.654 1.056 1.079 1.584 2.734 1.584 4.963v0.774l-4.576 0.422v-0.493c0-0.962-0.246-1.725-0.739-2.288-0.493-0.587-1.232-0.88-2.218-0.88s-1.76 0.34-2.323 1.021c-0.563 0.681-0.845 1.654-0.845 2.922v5.632h4.013v4.224h-12.038v-4.224h3.59v-9.011h-3.168v-4.224z"></path>
<path d="M157.314 13.587h0.845l4.646-6.406h4.858v0.211l-5.632 7.99v0.634l6.195 8.413v0.211h-5.069l-4.998-6.829h-0.845v6.829h-4.435v-24.64h4.435v13.587z"></path>
<path d="M176.931 17.354c0.023 0.516 0.141 0.997 0.352 1.443 0.235 0.422 0.54 0.798 0.915 1.126 0.399 0.305 0.845 0.551 1.338 0.739 0.516 0.164 1.056 0.246 1.619 0.246 1.103 0 1.948-0.188 2.534-0.563 0.587-0.399 1.009-0.868 1.267-1.408l3.802 2.112c-0.211 0.446-0.505 0.915-0.88 1.408-0.375 0.469-0.868 0.903-1.478 1.302-0.587 0.399-1.314 0.727-2.182 0.986-0.845 0.258-1.842 0.387-2.992 0.387-1.314 0-2.511-0.211-3.59-0.634s-2.018-1.033-2.816-1.83c-0.774-0.798-1.385-1.772-1.83-2.922-0.422-1.15-0.634-2.452-0.634-3.907v-0.211c0-1.338 0.223-2.558 0.669-3.661 0.469-1.103 1.103-2.042 1.901-2.816s1.725-1.373 2.781-1.795c1.079-0.446 2.229-0.669 3.45-0.669 1.502 0 2.793 0.27 3.872 0.81 1.079 0.516 1.971 1.185 2.675 2.006 0.704 0.798 1.22 1.69 1.549 2.675 0.329 0.962 0.493 1.901 0.493 2.816v2.358h-12.813zM181.119 10.701c-1.126 0-2.042 0.293-2.746 0.88-0.704 0.563-1.162 1.22-1.373 1.971h8.237c-0.141-0.821-0.587-1.502-1.338-2.042-0.727-0.54-1.654-0.81-2.781-0.81z"></path>
<path d="M194.084 7.181h5.175v-7.181h4.435v7.181h6.301v4.224h-6.301v7.955c0 0.704 0.317 1.056 0.95 1.056h4.717v4.224h-7.392c-0.798 0-1.455-0.258-1.971-0.774-0.493-0.516-0.739-1.173-0.739-1.971v-10.49h-5.175v-4.224z"></path>
<path d="M219.65 31.68h-4.435v-24.499h4.435v2.534h0.634c0.469-0.962 1.15-1.701 2.042-2.218 0.892-0.54 2.029-0.81 3.413-0.81 1.033 0 2.007 0.199 2.923 0.598 0.939 0.399 1.747 0.986 2.428 1.76 0.704 0.751 1.257 1.678 1.655 2.781 0.422 1.103 0.634 2.358 0.634 3.766v0.634c0 1.431-0.201 2.699-0.599 3.802s-0.939 2.042-1.619 2.816c-0.681 0.751-1.489 1.326-2.428 1.725-0.915 0.375-1.914 0.563-2.993 0.563-0.798 0-1.489-0.082-2.076-0.246s-1.103-0.387-1.549-0.669c-0.422-0.282-0.787-0.598-1.092-0.95-0.282-0.375-0.527-0.763-0.738-1.162h-0.634v9.574zM224.297 20.909c1.385 0 2.498-0.422 3.343-1.267 0.868-0.868 1.303-2.042 1.303-3.52v-0.422c0-1.478-0.435-2.64-1.303-3.485-0.845-0.868-1.958-1.302-3.343-1.302s-2.511 0.446-3.379 1.338c-0.845 0.868-1.267 2.018-1.267 3.45v0.422c0 1.431 0.422 2.593 1.267 3.485 0.868 0.868 1.995 1.302 3.379 1.302z"></path>
<path d="M237.577 20.416h6.125v-16.192h-5.914v-4.224h10.349v20.416h5.702v4.224h-16.262v-4.224z"></path>
<path d="M270.534 22.106c-0.469 1.103-1.126 1.889-1.971 2.358-0.845 0.446-1.83 0.669-2.957 0.669-1.056 0-2.052-0.199-2.991-0.598-0.915-0.399-1.726-0.986-2.43-1.76s-1.267-1.713-1.69-2.816c-0.399-1.103-0.597-2.358-0.597-3.766v-0.563c0-1.385 0.198-2.628 0.597-3.731s0.939-2.042 1.619-2.816c0.681-0.774 1.468-1.361 2.359-1.76 0.915-0.422 1.888-0.634 2.921-0.634 1.244 0 2.242 0.211 2.993 0.634 0.774 0.422 1.385 1.079 1.83 1.971h0.634v-2.112h4.435v12.179c0 0.704 0.316 1.056 0.949 1.056h0.67v4.224h-3.027c-0.798 0-1.455-0.235-1.971-0.704-0.493-0.469-0.74-1.079-0.74-1.83h-0.634zM266.592 20.909c1.291 0 2.323-0.422 3.098-1.267 0.774-0.868 1.163-2.042 1.163-3.52v-0.422c0-1.478-0.388-2.64-1.163-3.485-0.774-0.868-1.807-1.302-3.098-1.302s-2.323 0.434-3.098 1.302c-0.774 0.845-1.161 2.006-1.161 3.485v0.422c0 1.478 0.386 2.652 1.161 3.52 0.774 0.845 1.807 1.267 3.098 1.267z"></path>
<path d="M297.826 18.234c-0.399 2.065-1.35 3.731-2.852 4.998-1.478 1.267-3.46 1.901-5.948 1.901-1.291 0-2.5-0.199-3.627-0.598-1.103-0.399-2.065-0.974-2.886-1.725s-1.466-1.678-1.935-2.781c-0.469-1.103-0.704-2.358-0.704-3.766v-0.422c0-1.408 0.235-2.675 0.704-3.802s1.114-2.089 1.935-2.886c0.845-0.798 1.82-1.408 2.923-1.83 1.126-0.422 2.323-0.634 3.59-0.634 2.441 0 4.412 0.634 5.914 1.901 1.525 1.267 2.487 2.933 2.886 4.998l-4.365 1.126c-0.141-1.033-0.587-1.924-1.338-2.675s-1.807-1.126-3.168-1.126c-0.634 0-1.233 0.117-1.796 0.352s-1.056 0.575-1.478 1.021c-0.422 0.422-0.762 0.95-1.020 1.584-0.235 0.61-0.352 1.302-0.352 2.077v0.211c0 0.774 0.117 1.467 0.352 2.077 0.258 0.587 0.597 1.079 1.020 1.478s0.915 0.704 1.478 0.915c0.563 0.188 1.163 0.282 1.796 0.282 1.361 0 2.394-0.34 3.098-1.021 0.727-0.681 1.197-1.596 1.408-2.746l4.365 1.091z"></path>
<path d="M306.249 17.354c0.023 0.516 0.141 0.997 0.352 1.443 0.235 0.422 0.54 0.798 0.915 1.126 0.399 0.305 0.845 0.551 1.338 0.739 0.516 0.164 1.056 0.246 1.619 0.246 1.103 0 1.948-0.188 2.534-0.563 0.587-0.399 1.009-0.868 1.267-1.408l3.802 2.112c-0.211 0.446-0.503 0.915-0.879 1.408-0.375 0.469-0.868 0.903-1.478 1.302-0.587 0.399-1.314 0.727-2.182 0.986-0.845 0.258-1.843 0.387-2.993 0.387-1.314 0-2.511-0.211-3.59-0.634s-2.018-1.033-2.816-1.83c-0.774-0.798-1.385-1.772-1.83-2.922-0.422-1.15-0.634-2.452-0.634-3.907v-0.211c0-1.338 0.224-2.558 0.67-3.661 0.469-1.103 1.103-2.042 1.901-2.816s1.724-1.373 2.78-1.795c1.079-0.446 2.229-0.669 3.45-0.669 1.502 0 2.793 0.27 3.872 0.81 1.079 0.516 1.971 1.185 2.675 2.006 0.704 0.798 1.22 1.69 1.549 2.675 0.329 0.962 0.493 1.901 0.493 2.816v2.358h-12.813zM310.438 10.701c-1.126 0-2.042 0.293-2.746 0.88-0.704 0.563-1.163 1.22-1.374 1.971h8.237c-0.141-0.821-0.587-1.502-1.338-2.042-0.727-0.54-1.653-0.81-2.78-0.81z"></path>
</svg>
