<!-- Generated by IcoMoon.io -->
<svg version="1.1" xmlns="http://www.w3.org/2000/svg" width="32" height="32" viewBox="0 0 32 32">
<path fill="none" stroke-linejoin="round" stroke-linecap="round" stroke-miterlimit="4" stroke-width="1.2" stroke="#000" d="M2.5 27h9c1.286 0 2.542-0.381 3.611-1.095s1.902-1.729 2.394-2.917c0.492-1.188 0.621-2.495 0.37-3.756s-0.87-2.419-1.779-3.328c-0.909-0.909-2.067-1.528-3.328-1.779s-2.568-0.122-3.756 0.37c-1.188 0.492-2.203 1.325-2.917 2.394s-1.095 2.326-1.095 3.611c0 4.5-2.5 6.5-2.5 6.5z"></path>
<path fill="none" stroke-linejoin="round" stroke-linecap="round" stroke-miterlimit="4" stroke-width="1.2" stroke="#000" d="M14.050 14.525c2.4-3.237 8.5-10.65 14.075-10.65 0 5.575-7.412 11.675-10.65 14.075"></path>
<path fill="none" stroke-linejoin="round" stroke-linecap="round" stroke-miterlimit="4" stroke-width="1.2" stroke="#000" d="M16.625 11.325c1.694 0.956 3.094 2.356 4.050 4.050"></path>
</svg>
